{
  "accessors": [
    {
      "bufferView": 2,
      "componentType": 5126,
      "count": 1276,
      "max": [
        10.999987602233887,
        0.999997615814209,
        5.99998664855957
      ],
      "min": [
        -10.999984741210938,
        -9.575160220265388e-09,
        -3.499983549118042
      ],
      "type": "VEC3"
    },
    {
      "bufferView": 2,
      "byteOffset": 15312,
      "componentType": 5126,
      "count": 1276,
      "max": [
        0.9642914533615112,
        1.0,
        0.9775046706199646
      ],
      "min": [
        -0.9642922282218933,
        0.0,
        -0.9775049090385437
      ],
      "type": "VEC3"
    },
    {
      "bufferView": 1,
      "componentType": 5126,
      "count": 1276,
      "max": [
        0.99609375,
        0.9545294046401978
      ],
      "min": [
        0.00390625,
        0.00390625
      ],
      "type": "VEC2"
    },
    {
      "bufferView": 1,
      "byteOffset": 10208,
      "componentType": 5126,
      "count": 1276,
      "max": [
        0.99609375,
        0.9545294046401978
      ],
      "min": [
        0.00390625,
        0.00390625
      ],
      "type": "VEC2"
    },
    {
      "bufferView": 1,
      "byteOffset": 20416,
      "componentType": 5126,
      "count": 1276,
      "max": [
        0.99609375,
        0.9545294046401978
      ],
      "min": [
        0.00390625,
        0.00390625
      ],
      "type": "VEC2"
    },
    {
      "bufferView": 0,
      "componentType": 5125,
      "count": 5808,
      "type": "SCALAR"
    },
    {
      "bufferView": 2,
      "byteOffset": 30624,
      "componentType": 5126,
      "count": 165,
      "max": [
        3.688844680786133,
        0.9885830879211426,
        0.0
      ],
      "min": [
        -3.502589702606201,
        -0.011461734771728516,
        0.0
      ],
      "type": "VEC3"
    },
    {
      "bufferView": 2,
      "byteOffset": 32604,
      "componentType": 5126,
      "count": 165,
      "max": [
        0.0,
        0.0,
        1.0
      ],
      "min": [
        0.0,
        0.0,
        1.0
      ],
      "type": "VEC3"
    },
    {
      "bufferView": 1,
      "byteOffset": 30624,
      "componentType": 5126,
      "count": 165,
      "max": [
        0.10336096584796906,
        0.7280543446540833
      ],
      "min": [
        0.043153636157512665,
        0.6724714636802673
      ],
      "type": "VEC2"
    },
    {
      "bufferView": 0,
      "byteOffset": 23232,
      "componentType": 5125,
      "count": 459,
      "type": "SCALAR"
    },
    {
      "bufferView": 2,
      "byteOffset": 34584,
      "componentType": 5126,
      "count": 50,
      "max": [
        0.5877618789672852,
        0.4892768859863281,
        0.0
      ],
      "min": [
        -0.540496826171875,
        -0.005730867385864258,
        -1.0587911840678754e-22
      ],
      "type": "VEC3"
    },
    {
      "bufferView": 2,
      "byteOffset": 35184,
      "componentType": 5126,
      "count": 50,
      "max": [
        2.4229901326493297e-21,
        1.326702180945765e-21,
        1.0
      ],
      "min": [
        -1.8056985225959634e-21,
        -1.0287682234877693e-21,
        1.0
      ],
      "type": "VEC3"
    },
    {
      "bufferView": 1,
      "byteOffset": 31944,
      "componentType": 5126,
      "count": 50,
      "max": [
        0.22682642936706543,
        0.7366611361503601
      ],
      "min": [
        0.17747926712036133,
        0.6822822093963623
      ],
      "type": "VEC2"
    },
    {
      "bufferView": 0,
      "byteOffset": 25068,
      "componentType": 5125,
      "count": 144,
      "type": "SCALAR"
    },
    {
      "bufferView": 2,
      "byteOffset": 35784,
      "componentType": 5126,
      "count": 52,
      "max": [
        0.5404786467552185,
        0.4892768859863281,
        0.0
      ],
      "min": [
        -0.49321290850639343,
        -0.009312629699707031,
        -1.0587911840678754e-22
      ],
      "type": "VEC3"
    },
    {
      "bufferView": 2,
      "byteOffset": 36408,
      "componentType": 5126,
      "count": 52,
      "max": [
        2.4230194151661315e-21,
        1.3267055130942286e-21,
        1.0
      ],
      "min": [
        -1.8056922621958195e-21,
        -1.0287613572424503e-21,
        1.0
      ],
      "type": "VEC3"
    },
    {
      "bufferView": 1,
      "byteOffset": 32344,
      "componentType": 5126,
      "count": 52,
      "max": [
        0.09228318929672241,
        0.7240356206893921
      ],
      "min": [
        0.0520206093788147,
        0.6796669960021973
      ],
      "type": "VEC2"
    },
    {
      "bufferView": 0,
      "byteOffset": 25644,
      "componentType": 5125,
      "count": 144,
      "type": "SCALAR"
    },
    {
      "bufferView": 2,
      "byteOffset": 37032,
      "componentType": 5126,
      "count": 41,
      "max": [
        0.5121555328369141,
        0.4892768859863281,
        0.0
      ],
      "min": [
        -0.4505481719970703,
        -0.005730867385864258,
        -1.0587911840678754e-22
      ],
      "type": "VEC3"
    },
    {
      "bufferView": 2,
      "byteOffset": 37524,
      "componentType": 5126,
      "count": 41,
      "max": [
        1.1130951066058415e-22,
        1.093472690148561e-21,
        1.0
      ],
      "min": [
        -4.402333071112228e-22,
        -5.935923099508057e-22,
        1.0
      ],
      "type": "VEC3"
    },
    {
      "bufferView": 1,
      "byteOffset": 32760,
      "componentType": 5126,
      "count": 41,
      "max": [
        0.414898157119751,
        0.9197137951850891
      ],
      "min": [
        0.3615872859954834,
        0.8609656691551208
      ],
      "type": "VEC2"
    },
    {
      "bufferView": 0,
      "byteOffset": 26220,
      "componentType": 5125,
      "count": 111,
      "type": "SCALAR"
    }
  ],
  "asset": {
    "extras": {
      "author": "j-conrad (https://sketchfab.com/j-conrad)",
      "license": "CC-BY-4.0 (http://creativecommons.org/licenses/by/4.0/)",
      "source": "https://sketchfab.com/3d-models/pbrchart-metalness-2b489358ed4b48c6a8eb323c98b1d8a7",
      "title": "PBRchart_Metalness"
    },
    "generator": "Sketchfab-12.68.0",
    "version": "2.0"
  },
  "bufferViews": [
    {
      "buffer": 0,
      "byteLength": 26664,
      "name": "floatBufferViews",
      "target": 34963
    },
    {
      "buffer": 0,
      "byteLength": 33088,
      "byteOffset": 26664,
      "byteStride": 8,
      "name": "floatBufferViews",
      "target": 34962
    },
    {
      "buffer": 0,
      "byteLength": 38016,
      "byteOffset": 59752,
      "byteStride": 12,
      "name": "floatBufferViews",
      "target": 34962
    }
  ],
  "buffers": [
    {
      "byteLength": 97768,
      "uri": "scene.bin"
    }
  ],
  "images": [
    {
      "uri": "textures/MetalnessChart_baseColor.jpeg"
    },
    {
      "uri": "textures/MetalnessChart_metallicRoughness.png"
    }
  ],
  "materials": [
    {
      "name": "MetalnessChart",
      "pbrMetallicRoughness": {
        "baseColorTexture": {
          "index": 0
        },
        "metallicRoughnessTexture": {
          "index": 1
        }
      }
    },
    {
      "doubleSided": true,
      "name": "typeBlinn12",
      "pbrMetallicRoughness": {
        "metallicFactor": 0.0,
        "roughnessFactor": 0.9207483815999999
      }
    },
    {
      "doubleSided": true,
      "name": "typeBlinn13",
      "pbrMetallicRoughness": {
        "metallicFactor": 0.0,
        "roughnessFactor": 0.9207483815999999
      }
    },
    {
      "doubleSided": true,
      "name": "typeBlinn14",
      "pbrMetallicRoughness": {
        "metallicFactor": 0.0,
        "roughnessFactor": 0.9207483815999999
      }
    },
    {
      "doubleSided": true,
      "name": "typeBlinn15",
      "pbrMetallicRoughness": {
        "metallicFactor": 0.0,
        "roughnessFactor": 0.9207483815999999
      }
    }
  ],
  "meshes": [
    {
      "name": "Metallic_NonMetallic_MetalnessChart_0",
      "primitives": [
        {
          "attributes": {
            "NORMAL": 1,
            "POSITION": 0,
            "TEXCOORD_0": 2,
            "TEXCOORD_1": 3,
            "TEXCOORD_2": 4
          },
          "indices": 5,
          "material": 0,
          "mode": 4
        }
      ]
    },
    {
      "name": "typeMesh_Metalness_typeBlinn12_0",
      "primitives": [
        {
          "attributes": {
            "NORMAL": 7,
            "POSITION": 6,
            "TEXCOORD_0": 8
          },
          "indices": 9,
          "material": 1,
          "mode": 4
        }
      ]
    },
    {
      "name": "typeMesh_00_typeBlinn13_0",
      "primitives": [
        {
          "attributes": {
            "NORMAL": 11,
            "POSITION": 10,
            "TEXCOORD_0": 12
          },
          "indices": 13,
          "material": 2,
          "mode": 4
        }
      ]
    },
    {
      "name": "typeMesh_05_typeBlinn14_0",
      "primitives": [
        {
          "attributes": {
            "NORMAL": 15,
            "POSITION": 14,
            "TEXCOORD_0": 16
          },
          "indices": 17,
          "material": 3,
          "mode": 4
        }
      ]
    },
    {
      "name": "typeMesh_010_typeBlinn15_0",
      "primitives": [
        {
          "attributes": {
            "NORMAL": 19,
            "POSITION": 18,
            "TEXCOORD_0": 20
          },
          "indices": 21,
          "material": 4,
          "mode": 4
        }
      ]
    }
  ],
  "nodes": [
    {
      "children": [
        1
      ],
      "matrix": [
        0.10000000149011612,
        0.0,
        0.0,
        0.0,
        0.0,
        2.2204460823375376e-17,
        -0.10000000149011612,
        0.0,
        0.0,
        0.10000000149011612,
        2.2204460823375376e-17,
        0.0,
        0.0,
        0.0,
        0.0,
        1.0
      ],
      "name": "Sketchfab_model"
    },
    {
      "children": [
        2
      ],
      "matrix": [
        1.0,
        0.0,
        0.0,
        0.0,
        0.0,
        0.0,
        1.0,
        0.0,
        0.0,
        -1.0,
        0.0,
        0.0,
        0.0,
        0.0,
        0.0,
        1.0
      ],
      "name": "4d90d3852bab4ea68129ddd5f6a2788e.fbx"
    },
    {
      "children": [
        3,
        5,
        7,
        9,
        11
      ],
      "name": "RootNode"
    },
    {
      "children": [
        4
      ],
      "name": "Metallic_NonMetallic"
    },
    {
      "mesh": 0,
      "name": "Metallic_NonMetallic_MetalnessChart_0"
    },
    {
      "children": [
        6
      ],
      "matrix": [
        1.0,
        0.0,
        0.0,
        0.0,
        0.0,
        -2.220446049250313e-16,
        -1.0,
        0.0,
        0.0,
        1.0,
        -2.220446049250313e-16,
        0.0,
        0.0,
        0.0,
        -5.5,
        1.0
      ],
      "name": "typeMesh_Metalness"
    },
    {
      "mesh": 1,
      "name": "typeMesh_Metalness_typeBlinn12_0"
    },
    {
      "children": [
        8
      ],
      "matrix": [
        1.0,
        0.0,
        0.0,
        0.0,
        -0.0,
        -2.220446049250313e-16,
        -1.0,
        0.0,
        0.0,
        1.0,
        -2.220446049250313e-16,
        0.0,
        -10.0,
        0.0,
        -4.0,
        1.0
      ],
      "name": "typeMesh_00"
    },
    {
      "mesh": 2,
      "name": "typeMesh_00_typeBlinn13_0"
    },
    {
      "children": [
        10
      ],
      "matrix": [
        1.0,
        0.0,
        0.0,
        0.0,
        0.0,
        -2.220446049250313e-16,
        -1.0,
        0.0,
        0.0,
        1.0,
        -2.220446049250313e-16,
        0.0,
        0.0,
        0.0,
        -4.0,
        1.0
      ],
      "name": "typeMesh_05"
    },
    {
      "mesh": 3,
      "name": "typeMesh_05_typeBlinn14_0"
    },
    {
      "children": [
        12
      ],
      "matrix": [
        1.0,
        0.0,
        0.0,
        0.0,
        0.0,
        -2.220446049250313e-16,
        -1.0,
        0.0,
        0.0,
        1.0,
        -2.220446049250313e-16,
        0.0,
        10.0,
        0.0,
        -4.0,
        1.0
      ],
      "name": "typeMesh_010"
    },
    {
      "mesh": 4,
      "name": "typeMesh_010_typeBlinn15_0"
    }
  ],
  "samplers": [
    {
      "magFilter": 9729,
      "minFilter": 9987,
      "wrapS": 33071,
      "wrapT": 33071
    }
  ],
  "scene": 0,
  "scenes": [
    {
      "name": "Sketchfab_Scene",
      "nodes": [
        0
      ]
    }
  ],
  "textures": [
    {
      "sampler": 0,
      "source": 0
    },
    {
      "sampler": 0,
      "source": 1
    }
  ]
}
